<?xml version="1.0" encoding="UTF-8" standalone="no"?>
<!DOCTYPE svg PUBLIC "-//W3C//DTD SVG 1.1//EN"
 "http://www.w3.org/Graphics/SVG/1.1/DTD/svg11.dtd">
<!-- Generated by graphviz version 2.47.0 (20210316.0004)
 -->
<!-- Title: dependencies Pages: 1 -->
<svg width="720pt" height="211pt"
 viewBox="0.00 0.00 720.00 211.00" xmlns="http://www.w3.org/2000/svg" xmlns:xlink="http://www.w3.org/1999/xlink">
<g id="graph0" class="graph" transform="scale(1 1) rotate(0) translate(4 207)">
<title>dependencies</title>
<polygon fill="white" stroke="transparent" points="-4,4 -4,-207 716,-207 716,4 -4,4"/>
<text text-anchor="start" x="335.01" y="-42.4" font-family="sans-serif" font-weight="bold" font-size="14.00">Legend</text>
<polygon fill="#ffffb3" stroke="transparent" points="122,-10 122,-30 142,-30 142,-10 122,-10"/>
<text text-anchor="start" x="145.63" y="-15.4" font-family="sans-serif" font-size="14.00"> &#160;Declarations</text>
<polygon fill="#8dd3c7" stroke="transparent" points="235,-10 235,-30 255,-30 255,-10 235,-10"/>
<text text-anchor="start" x="258.73" y="-15.4" font-family="sans-serif" font-size="14.00"> &#160;Module</text>
<polygon fill="#80b1d3" stroke="transparent" points="321,-10 321,-30 341,-30 341,-10 321,-10"/>
<text text-anchor="start" x="344.78" y="-15.4" font-family="sans-serif" font-size="14.00"> &#160;Bootstrap</text>
<polygon fill="#fdb462" stroke="transparent" points="418,-10 418,-30 438,-30 438,-10 418,-10"/>
<text text-anchor="start" x="441.67" y="-15.4" font-family="sans-serif" font-size="14.00"> &#160;Providers</text>
<polygon fill="#fb8072" stroke="transparent" points="514,-10 514,-30 534,-30 534,-10 514,-10"/>
<text text-anchor="start" x="537.73" y="-15.4" font-family="sans-serif" font-size="14.00"> &#160;Exports</text>
<g id="clust1" class="cluster">
<title>cluster_RatingsModule</title>
<polygon fill="none" stroke="black" stroke-dasharray="1,5" points="8,-70 8,-195 704,-195 704,-70 8,-70"/>
</g>
<g id="clust6" class="cluster">
<title>cluster_RatingsModule_providers</title>
<polygon fill="none" stroke="black" points="542,-78 542,-130 696,-130 696,-78 542,-78"/>
</g>
<g id="clust3" class="cluster">
<title>cluster_RatingsModule_imports</title>
<polygon fill="none" stroke="black" points="16,-78 16,-130 534,-130 534,-78 16,-78"/>
</g>
<!-- EventsModule -->
<g id="node1" class="node">
<title>EventsModule</title>
<polygon fill="#8dd3c7" stroke="black" points="525.65,-122 522.65,-126 501.65,-126 498.65,-122 428.35,-122 428.35,-86 525.65,-86 525.65,-122"/>
<text text-anchor="middle" x="477" y="-99.8" font-family="Times,serif" font-size="14.00">EventsModule</text>
</g>
<!-- RatingsModule -->
<g id="node5" class="node">
<title>RatingsModule</title>
<polygon fill="#8dd3c7" stroke="black" points="398.33,-187 395.33,-191 374.33,-191 371.33,-187 295.67,-187 295.67,-151 398.33,-151 398.33,-187"/>
<text text-anchor="middle" x="347" y="-164.8" font-family="Times,serif" font-size="14.00">RatingsModule</text>
</g>
<!-- EventsModule&#45;&gt;RatingsModule -->
<g id="edge1" class="edge">
<title>EventsModule&#45;&gt;RatingsModule</title>
<path fill="none" stroke="black" d="M477,-122.02C477,-139.37 477,-163 477,-163 477,-163 408.38,-163 408.38,-163"/>
<polygon fill="black" stroke="black" points="408.38,-159.5 398.38,-163 408.38,-166.5 408.38,-159.5"/>
</g>
<!-- ParticipantsModule -->
<g id="node2" class="node">
<title>ParticipantsModule</title>
<polygon fill="#8dd3c7" stroke="black" points="409.64,-122 406.64,-126 385.64,-126 382.64,-122 284.36,-122 284.36,-86 409.64,-86 409.64,-122"/>
<text text-anchor="middle" x="347" y="-99.8" font-family="Times,serif" font-size="14.00">ParticipantsModule</text>
</g>
<!-- ParticipantsModule&#45;&gt;RatingsModule -->
<g id="edge2" class="edge">
<title>ParticipantsModule&#45;&gt;RatingsModule</title>
<path fill="none" stroke="black" d="M347,-122.11C347,-122.11 347,-140.99 347,-140.99"/>
<polygon fill="black" stroke="black" points="343.5,-140.99 347,-150.99 350.5,-140.99 343.5,-140.99"/>
</g>
<!-- UserActivityModule -->
<g id="node3" class="node">
<title>UserActivityModule</title>
<polygon fill="#8dd3c7" stroke="black" points="265.86,-122 262.86,-126 241.86,-126 238.86,-122 134.14,-122 134.14,-86 265.86,-86 265.86,-122"/>
<text text-anchor="middle" x="200" y="-99.8" font-family="Times,serif" font-size="14.00">UserActivityModule</text>
</g>
<!-- UserActivityModule&#45;&gt;RatingsModule -->
<g id="edge3" class="edge">
<title>UserActivityModule&#45;&gt;RatingsModule</title>
<path fill="none" stroke="black" d="M200,-122.02C200,-139.37 200,-163 200,-163 200,-163 285.59,-163 285.59,-163"/>
<polygon fill="black" stroke="black" points="285.59,-166.5 295.59,-163 285.59,-159.5 285.59,-166.5"/>
</g>
<!-- UsersModule -->
<g id="node4" class="node">
<title>UsersModule</title>
<polygon fill="#8dd3c7" stroke="black" points="115.92,-122 112.92,-126 91.92,-126 88.92,-122 24.08,-122 24.08,-86 115.92,-86 115.92,-122"/>
<text text-anchor="middle" x="70" y="-99.8" font-family="Times,serif" font-size="14.00">UsersModule</text>
</g>
<!-- UsersModule&#45;&gt;RatingsModule -->
<g id="edge4" class="edge">
<title>UsersModule&#45;&gt;RatingsModule</title>
<path fill="none" stroke="black" d="M70,-122.28C70,-143.32 70,-175 70,-175 70,-175 285.55,-175 285.55,-175"/>
<polygon fill="black" stroke="black" points="285.55,-178.5 295.55,-175 285.55,-171.5 285.55,-178.5"/>
</g>
<!-- RatingsService -->
<g id="node6" class="node">
<title>RatingsService</title>
<ellipse fill="#fdb462" stroke="black" cx="619" cy="-104" rx="69.5" ry="18"/>
<text text-anchor="middle" x="619" y="-99.8" font-family="Times,serif" font-size="14.00">RatingsService</text>
</g>
<!-- RatingsService&#45;&gt;RatingsModule -->
<g id="edge5" class="edge">
<title>RatingsService&#45;&gt;RatingsModule</title>
<path fill="none" stroke="black" d="M619,-122.28C619,-143.32 619,-175 619,-175 619,-175 408.48,-175 408.48,-175"/>
<polygon fill="black" stroke="black" points="408.48,-171.5 398.48,-175 408.48,-178.5 408.48,-171.5"/>
</g>
</g>
</svg>
