<?xml version="1.0" encoding="UTF-8" standalone="no"?>
<!DOCTYPE svg PUBLIC "-//W3C//DTD SVG 1.1//EN"
 "http://www.w3.org/Graphics/SVG/1.1/DTD/svg11.dtd">
<!-- Generated by graphviz version 2.47.0 (20210316.0004)
 -->
<!-- Title: dependencies Pages: 1 -->
<svg width="504pt" height="284pt"
 viewBox="0.00 0.00 504.00 284.00" xmlns="http://www.w3.org/2000/svg" xmlns:xlink="http://www.w3.org/1999/xlink">
<g id="graph0" class="graph" transform="scale(1 1) rotate(0) translate(4 280)">
<title>dependencies</title>
<polygon fill="white" stroke="transparent" points="-4,4 -4,-280 500,-280 500,4 -4,4"/>
<text text-anchor="start" x="227.01" y="-42.4" font-family="sans-serif" font-weight="bold" font-size="14.00">Legend</text>
<polygon fill="#ffffb3" stroke="transparent" points="14,-10 14,-30 34,-30 34,-10 14,-10"/>
<text text-anchor="start" x="37.63" y="-15.4" font-family="sans-serif" font-size="14.00"> &#160;Declarations</text>
<polygon fill="#8dd3c7" stroke="transparent" points="127,-10 127,-30 147,-30 147,-10 127,-10"/>
<text text-anchor="start" x="150.73" y="-15.4" font-family="sans-serif" font-size="14.00"> &#160;Module</text>
<polygon fill="#80b1d3" stroke="transparent" points="213,-10 213,-30 233,-30 233,-10 213,-10"/>
<text text-anchor="start" x="236.78" y="-15.4" font-family="sans-serif" font-size="14.00"> &#160;Bootstrap</text>
<polygon fill="#fdb462" stroke="transparent" points="310,-10 310,-30 330,-30 330,-10 310,-10"/>
<text text-anchor="start" x="333.67" y="-15.4" font-family="sans-serif" font-size="14.00"> &#160;Providers</text>
<polygon fill="#fb8072" stroke="transparent" points="406,-10 406,-30 426,-30 426,-10 406,-10"/>
<text text-anchor="start" x="429.73" y="-15.4" font-family="sans-serif" font-size="14.00"> &#160;Exports</text>
<g id="clust1" class="cluster">
<title>cluster_ParticipantsModule</title>
<polygon fill="none" stroke="black" stroke-dasharray="1,5" points="13,-70 13,-268 483,-268 483,-70 13,-70"/>
</g>
<g id="clust6" class="cluster">
<title>cluster_ParticipantsModule_providers</title>
<polygon fill="none" stroke="black" points="287,-78 287,-130 475,-130 475,-78 287,-78"/>
</g>
<g id="clust4" class="cluster">
<title>cluster_ParticipantsModule_exports</title>
<polygon fill="none" stroke="black" points="133,-208 133,-260 277,-260 277,-208 133,-208"/>
</g>
<g id="clust3" class="cluster">
<title>cluster_ParticipantsModule_imports</title>
<polygon fill="none" stroke="black" points="21,-78 21,-130 279,-130 279,-78 21,-78"/>
</g>
<!-- UserActivityModule -->
<g id="node1" class="node">
<title>UserActivityModule</title>
<polygon fill="#8dd3c7" stroke="black" points="270.86,-122 267.86,-126 246.86,-126 243.86,-122 139.14,-122 139.14,-86 270.86,-86 270.86,-122"/>
<text text-anchor="middle" x="205" y="-99.8" font-family="Times,serif" font-size="14.00">UserActivityModule</text>
</g>
<!-- ParticipantsModule -->
<g id="node3" class="node">
<title>ParticipantsModule</title>
<polygon fill="#8dd3c7" stroke="black" points="267.64,-187 264.64,-191 243.64,-191 240.64,-187 142.36,-187 142.36,-151 267.64,-151 267.64,-187"/>
<text text-anchor="middle" x="205" y="-164.8" font-family="Times,serif" font-size="14.00">ParticipantsModule</text>
</g>
<!-- UserActivityModule&#45;&gt;ParticipantsModule -->
<g id="edge1" class="edge">
<title>UserActivityModule&#45;&gt;ParticipantsModule</title>
<path fill="none" stroke="black" d="M205,-122.11C205,-122.11 205,-140.99 205,-140.99"/>
<polygon fill="black" stroke="black" points="201.5,-140.99 205,-150.99 208.5,-140.99 201.5,-140.99"/>
</g>
<!-- UsersModule -->
<g id="node2" class="node">
<title>UsersModule</title>
<polygon fill="#8dd3c7" stroke="black" points="120.92,-122 117.92,-126 96.92,-126 93.92,-122 29.08,-122 29.08,-86 120.92,-86 120.92,-122"/>
<text text-anchor="middle" x="75" y="-99.8" font-family="Times,serif" font-size="14.00">UsersModule</text>
</g>
<!-- UsersModule&#45;&gt;ParticipantsModule -->
<g id="edge2" class="edge">
<title>UsersModule&#45;&gt;ParticipantsModule</title>
<path fill="none" stroke="black" d="M75,-122.11C75,-141.34 75,-169 75,-169 75,-169 132.28,-169 132.28,-169"/>
<polygon fill="black" stroke="black" points="132.28,-172.5 142.28,-169 132.28,-165.5 132.28,-172.5"/>
</g>
<!-- ParticipantsService  -->
<g id="node4" class="node">
<title>ParticipantsService </title>
<polygon fill="#fb8072" stroke="black" points="268.57,-252 141.43,-252 141.43,-216 268.57,-216 268.57,-252"/>
<text text-anchor="middle" x="205" y="-229.8" font-family="Times,serif" font-size="14.00">ParticipantsService </text>
</g>
<!-- ParticipantsModule&#45;&gt;ParticipantsService  -->
<g id="edge3" class="edge">
<title>ParticipantsModule&#45;&gt;ParticipantsService </title>
<path fill="none" stroke="black" stroke-dasharray="5,2" d="M205,-187.11C205,-187.11 205,-205.99 205,-205.99"/>
<polygon fill="black" stroke="black" points="201.5,-205.99 205,-215.99 208.5,-205.99 201.5,-205.99"/>
</g>
<!-- ParticipantsService -->
<g id="node5" class="node">
<title>ParticipantsService</title>
<ellipse fill="#fdb462" stroke="black" cx="381" cy="-104" rx="85.66" ry="18"/>
<text text-anchor="middle" x="381" y="-99.8" font-family="Times,serif" font-size="14.00">ParticipantsService</text>
</g>
<!-- ParticipantsService&#45;&gt;ParticipantsModule -->
<g id="edge4" class="edge">
<title>ParticipantsService&#45;&gt;ParticipantsModule</title>
<path fill="none" stroke="black" d="M381,-122.11C381,-141.34 381,-169 381,-169 381,-169 278.04,-169 278.04,-169"/>
<polygon fill="black" stroke="black" points="278.04,-165.5 268.04,-169 278.04,-172.5 278.04,-165.5"/>
</g>
</g>
</svg>
