<?xml version="1.0" encoding="UTF-8" standalone="no"?>
<!DOCTYPE svg PUBLIC "-//W3C//DTD SVG 1.1//EN"
 "http://www.w3.org/Graphics/SVG/1.1/DTD/svg11.dtd">
<!-- Generated by graphviz version 2.47.0 (20210316.0004)
 -->
<!-- Title: dependencies Pages: 1 -->
<svg width="504pt" height="284pt"
 viewBox="0.00 0.00 504.00 284.00" xmlns="http://www.w3.org/2000/svg" xmlns:xlink="http://www.w3.org/1999/xlink">
<g id="graph0" class="graph" transform="scale(1 1) rotate(0) translate(4 280)">
<title>dependencies</title>
<polygon fill="white" stroke="transparent" points="-4,4 -4,-280 500,-280 500,4 -4,4"/>
<text text-anchor="start" x="227.01" y="-42.4" font-family="sans-serif" font-weight="bold" font-size="14.00">Legend</text>
<polygon fill="#ffffb3" stroke="transparent" points="14,-10 14,-30 34,-30 34,-10 14,-10"/>
<text text-anchor="start" x="37.63" y="-15.4" font-family="sans-serif" font-size="14.00"> &#160;Declarations</text>
<polygon fill="#8dd3c7" stroke="transparent" points="127,-10 127,-30 147,-30 147,-10 127,-10"/>
<text text-anchor="start" x="150.73" y="-15.4" font-family="sans-serif" font-size="14.00"> &#160;Module</text>
<polygon fill="#80b1d3" stroke="transparent" points="213,-10 213,-30 233,-30 233,-10 213,-10"/>
<text text-anchor="start" x="236.78" y="-15.4" font-family="sans-serif" font-size="14.00"> &#160;Bootstrap</text>
<polygon fill="#fdb462" stroke="transparent" points="310,-10 310,-30 330,-30 330,-10 310,-10"/>
<text text-anchor="start" x="333.67" y="-15.4" font-family="sans-serif" font-size="14.00"> &#160;Providers</text>
<polygon fill="#fb8072" stroke="transparent" points="406,-10 406,-30 426,-30 426,-10 406,-10"/>
<text text-anchor="start" x="429.73" y="-15.4" font-family="sans-serif" font-size="14.00"> &#160;Exports</text>
<g id="clust1" class="cluster">
<title>cluster_UserActivityModule</title>
<polygon fill="none" stroke="black" stroke-dasharray="1,5" points="84,-70 84,-268 412,-268 412,-70 84,-70"/>
</g>
<g id="clust4" class="cluster">
<title>cluster_UserActivityModule_exports</title>
<polygon fill="none" stroke="black" points="161,-208 161,-260 311,-260 311,-208 161,-208"/>
</g>
<g id="clust6" class="cluster">
<title>cluster_UserActivityModule_providers</title>
<polygon fill="none" stroke="black" points="208,-78 208,-130 404,-130 404,-78 208,-78"/>
</g>
<g id="clust3" class="cluster">
<title>cluster_UserActivityModule_imports</title>
<polygon fill="none" stroke="black" points="92,-78 92,-130 200,-130 200,-78 92,-78"/>
</g>
<!-- UsersModule -->
<g id="node1" class="node">
<title>UsersModule</title>
<polygon fill="#8dd3c7" stroke="black" points="191.92,-122 188.92,-126 167.92,-126 164.92,-122 100.08,-122 100.08,-86 191.92,-86 191.92,-122"/>
<text text-anchor="middle" x="146" y="-99.8" font-family="Times,serif" font-size="14.00">UsersModule</text>
</g>
<!-- UserActivityModule -->
<g id="node2" class="node">
<title>UserActivityModule</title>
<polygon fill="#8dd3c7" stroke="black" points="301.86,-187 298.86,-191 277.86,-191 274.86,-187 170.14,-187 170.14,-151 301.86,-151 301.86,-187"/>
<text text-anchor="middle" x="236" y="-164.8" font-family="Times,serif" font-size="14.00">UserActivityModule</text>
</g>
<!-- UsersModule&#45;&gt;UserActivityModule -->
<g id="edge1" class="edge">
<title>UsersModule&#45;&gt;UserActivityModule</title>
<path fill="none" stroke="black" d="M180.89,-122.11C180.89,-122.11 180.89,-140.99 180.89,-140.99"/>
<polygon fill="black" stroke="black" points="177.39,-140.99 180.89,-150.99 184.39,-140.99 177.39,-140.99"/>
</g>
<!-- UserActivityService  -->
<g id="node3" class="node">
<title>UserActivityService </title>
<polygon fill="#fb8072" stroke="black" points="302.79,-252 169.21,-252 169.21,-216 302.79,-216 302.79,-252"/>
<text text-anchor="middle" x="236" y="-229.8" font-family="Times,serif" font-size="14.00">UserActivityService </text>
</g>
<!-- UserActivityModule&#45;&gt;UserActivityService  -->
<g id="edge2" class="edge">
<title>UserActivityModule&#45;&gt;UserActivityService </title>
<path fill="none" stroke="black" stroke-dasharray="5,2" d="M236,-187.11C236,-187.11 236,-205.99 236,-205.99"/>
<polygon fill="black" stroke="black" points="232.5,-205.99 236,-215.99 239.5,-205.99 232.5,-205.99"/>
</g>
<!-- UserActivityService -->
<g id="node4" class="node">
<title>UserActivityService</title>
<ellipse fill="#fdb462" stroke="black" cx="306" cy="-104" rx="89.74" ry="18"/>
<text text-anchor="middle" x="306" y="-99.8" font-family="Times,serif" font-size="14.00">UserActivityService</text>
</g>
<!-- UserActivityService&#45;&gt;UserActivityModule -->
<g id="edge3" class="edge">
<title>UserActivityService&#45;&gt;UserActivityModule</title>
<path fill="none" stroke="black" d="M259.03,-119.4C259.03,-119.4 259.03,-140.94 259.03,-140.94"/>
<polygon fill="black" stroke="black" points="255.53,-140.94 259.03,-150.94 262.53,-140.94 255.53,-140.94"/>
</g>
</g>
</svg>
