<?xml version="1.0" encoding="UTF-8" standalone="no"?>
<!DOCTYPE svg PUBLIC "-//W3C//DTD SVG 1.1//EN"
 "http://www.w3.org/Graphics/SVG/1.1/DTD/svg11.dtd">
<!-- Generated by graphviz version 2.47.0 (20210316.0004)
 -->
<!-- Title: dependencies Pages: 1 -->
<svg width="504pt" height="284pt"
 viewBox="0.00 0.00 504.00 284.00" xmlns="http://www.w3.org/2000/svg" xmlns:xlink="http://www.w3.org/1999/xlink">
<g id="graph0" class="graph" transform="scale(1 1) rotate(0) translate(4 280)">
<title>dependencies</title>
<polygon fill="white" stroke="transparent" points="-4,4 -4,-280 500,-280 500,4 -4,4"/>
<text text-anchor="start" x="227.01" y="-42.4" font-family="sans-serif" font-weight="bold" font-size="14.00">Legend</text>
<polygon fill="#ffffb3" stroke="transparent" points="14,-10 14,-30 34,-30 34,-10 14,-10"/>
<text text-anchor="start" x="37.63" y="-15.4" font-family="sans-serif" font-size="14.00"> &#160;Declarations</text>
<polygon fill="#8dd3c7" stroke="transparent" points="127,-10 127,-30 147,-30 147,-10 127,-10"/>
<text text-anchor="start" x="150.73" y="-15.4" font-family="sans-serif" font-size="14.00"> &#160;Module</text>
<polygon fill="#80b1d3" stroke="transparent" points="213,-10 213,-30 233,-30 233,-10 213,-10"/>
<text text-anchor="start" x="236.78" y="-15.4" font-family="sans-serif" font-size="14.00"> &#160;Bootstrap</text>
<polygon fill="#fdb462" stroke="transparent" points="310,-10 310,-30 330,-30 330,-10 310,-10"/>
<text text-anchor="start" x="333.67" y="-15.4" font-family="sans-serif" font-size="14.00"> &#160;Providers</text>
<polygon fill="#fb8072" stroke="transparent" points="406,-10 406,-30 426,-30 426,-10 406,-10"/>
<text text-anchor="start" x="429.73" y="-15.4" font-family="sans-serif" font-size="14.00"> &#160;Exports</text>
<g id="clust1" class="cluster">
<title>cluster_NotificationsModule</title>
<polygon fill="none" stroke="black" stroke-dasharray="1,5" points="15,-70 15,-268 481,-268 481,-70 15,-70"/>
</g>
<g id="clust6" class="cluster">
<title>cluster_NotificationsModule_providers</title>
<polygon fill="none" stroke="black" points="277,-78 277,-130 473,-130 473,-78 277,-78"/>
</g>
<g id="clust4" class="cluster">
<title>cluster_NotificationsModule_exports</title>
<polygon fill="none" stroke="black" points="143,-208 143,-260 293,-260 293,-208 143,-208"/>
</g>
<g id="clust3" class="cluster">
<title>cluster_NotificationsModule_imports</title>
<polygon fill="none" stroke="black" points="23,-78 23,-130 269,-130 269,-78 23,-78"/>
</g>
<!-- MailModule -->
<g id="node1" class="node">
<title>MailModule</title>
<polygon fill="#8dd3c7" stroke="black" points="260.99,-122 257.99,-126 236.99,-126 233.99,-122 175.01,-122 175.01,-86 260.99,-86 260.99,-122"/>
<text text-anchor="middle" x="218" y="-99.8" font-family="Times,serif" font-size="14.00">MailModule</text>
</g>
<!-- NotificationsModule -->
<g id="node3" class="node">
<title>NotificationsModule</title>
<polygon fill="#8dd3c7" stroke="black" points="284.14,-187 281.14,-191 260.14,-191 257.14,-187 151.86,-187 151.86,-151 284.14,-151 284.14,-187"/>
<text text-anchor="middle" x="218" y="-164.8" font-family="Times,serif" font-size="14.00">NotificationsModule</text>
</g>
<!-- MailModule&#45;&gt;NotificationsModule -->
<g id="edge1" class="edge">
<title>MailModule&#45;&gt;NotificationsModule</title>
<path fill="none" stroke="black" d="M218,-122.11C218,-122.11 218,-140.99 218,-140.99"/>
<polygon fill="black" stroke="black" points="214.5,-140.99 218,-150.99 221.5,-140.99 214.5,-140.99"/>
</g>
<!-- ParticipantsModule -->
<g id="node2" class="node">
<title>ParticipantsModule</title>
<polygon fill="#8dd3c7" stroke="black" points="156.64,-122 153.64,-126 132.64,-126 129.64,-122 31.36,-122 31.36,-86 156.64,-86 156.64,-122"/>
<text text-anchor="middle" x="94" y="-99.8" font-family="Times,serif" font-size="14.00">ParticipantsModule</text>
</g>
<!-- ParticipantsModule&#45;&gt;NotificationsModule -->
<g id="edge2" class="edge">
<title>ParticipantsModule&#45;&gt;NotificationsModule</title>
<path fill="none" stroke="black" d="M156.81,-104C162.35,-104 165.91,-104 165.91,-104 165.91,-104 165.91,-140.89 165.91,-140.89"/>
<polygon fill="black" stroke="black" points="162.41,-140.89 165.91,-150.89 169.41,-140.89 162.41,-140.89"/>
</g>
<!-- NotificationsService  -->
<g id="node4" class="node">
<title>NotificationsService </title>
<polygon fill="#fb8072" stroke="black" points="285.07,-252 150.93,-252 150.93,-216 285.07,-216 285.07,-252"/>
<text text-anchor="middle" x="218" y="-229.8" font-family="Times,serif" font-size="14.00">NotificationsService </text>
</g>
<!-- NotificationsModule&#45;&gt;NotificationsService  -->
<g id="edge3" class="edge">
<title>NotificationsModule&#45;&gt;NotificationsService </title>
<path fill="none" stroke="black" stroke-dasharray="5,2" d="M218,-187.11C218,-187.11 218,-205.99 218,-205.99"/>
<polygon fill="black" stroke="black" points="214.5,-205.99 218,-215.99 221.5,-205.99 214.5,-205.99"/>
</g>
<!-- NotificationsService -->
<g id="node5" class="node">
<title>NotificationsService</title>
<ellipse fill="#fdb462" stroke="black" cx="375" cy="-104" rx="90.32" ry="18"/>
<text text-anchor="middle" x="375" y="-99.8" font-family="Times,serif" font-size="14.00">NotificationsService</text>
</g>
<!-- NotificationsService&#45;&gt;NotificationsModule -->
<g id="edge4" class="edge">
<title>NotificationsService&#45;&gt;NotificationsModule</title>
<path fill="none" stroke="black" d="M284.4,-104C277.21,-104 272.66,-104 272.66,-104 272.66,-104 272.66,-140.89 272.66,-140.89"/>
<polygon fill="black" stroke="black" points="269.16,-140.89 272.66,-150.89 276.16,-140.89 269.16,-140.89"/>
</g>
</g>
</svg>
