<?xml version="1.0" encoding="UTF-8" standalone="no"?>
<!DOCTYPE svg PUBLIC "-//W3C//DTD SVG 1.1//EN"
 "http://www.w3.org/Graphics/SVG/1.1/DTD/svg11.dtd">
<!-- Generated by graphviz version 2.47.0 (20210316.0004)
 -->
<!-- Title: dependencies Pages: 1 -->
<svg width="1283pt" height="211pt"
 viewBox="0.00 0.00 1283.00 211.00" xmlns="http://www.w3.org/2000/svg" xmlns:xlink="http://www.w3.org/1999/xlink">
<g id="graph0" class="graph" transform="scale(1 1) rotate(0) translate(4 207)">
<title>dependencies</title>
<polygon fill="white" stroke="transparent" points="-4,4 -4,-207 1279,-207 1279,4 -4,4"/>
<text text-anchor="start" x="616.51" y="-42.4" font-family="sans-serif" font-weight="bold" font-size="14.00">Legend</text>
<polygon fill="#ffffb3" stroke="transparent" points="403.5,-10 403.5,-30 423.5,-30 423.5,-10 403.5,-10"/>
<text text-anchor="start" x="427.13" y="-15.4" font-family="sans-serif" font-size="14.00"> &#160;Declarations</text>
<polygon fill="#8dd3c7" stroke="transparent" points="516.5,-10 516.5,-30 536.5,-30 536.5,-10 516.5,-10"/>
<text text-anchor="start" x="540.23" y="-15.4" font-family="sans-serif" font-size="14.00"> &#160;Module</text>
<polygon fill="#80b1d3" stroke="transparent" points="602.5,-10 602.5,-30 622.5,-30 622.5,-10 602.5,-10"/>
<text text-anchor="start" x="626.28" y="-15.4" font-family="sans-serif" font-size="14.00"> &#160;Bootstrap</text>
<polygon fill="#fdb462" stroke="transparent" points="699.5,-10 699.5,-30 719.5,-30 719.5,-10 699.5,-10"/>
<text text-anchor="start" x="723.17" y="-15.4" font-family="sans-serif" font-size="14.00"> &#160;Providers</text>
<polygon fill="#fb8072" stroke="transparent" points="795.5,-10 795.5,-30 815.5,-30 815.5,-10 795.5,-10"/>
<text text-anchor="start" x="819.23" y="-15.4" font-family="sans-serif" font-size="14.00"> &#160;Exports</text>
<g id="clust1" class="cluster">
<title>cluster_AppModule</title>
<polygon fill="none" stroke="black" stroke-dasharray="1,5" points="8,-70 8,-195 1267,-195 1267,-70 8,-70"/>
</g>
<g id="clust3" class="cluster">
<title>cluster_AppModule_imports</title>
<polygon fill="none" stroke="black" points="16,-78 16,-130 1259,-130 1259,-78 16,-78"/>
</g>
<!-- AuthModule -->
<g id="node1" class="node">
<title>AuthModule</title>
<polygon fill="#8dd3c7" stroke="black" points="1250.55,-122 1247.55,-126 1226.55,-126 1223.55,-122 1163.45,-122 1163.45,-86 1250.55,-86 1250.55,-122"/>
<text text-anchor="middle" x="1207" y="-99.8" font-family="Times,serif" font-size="14.00">AuthModule</text>
</g>
<!-- AppModule -->
<g id="node11" class="node">
<title>AppModule</title>
<polygon fill="#8dd3c7" stroke="black" points="686.66,-187 683.66,-191 662.66,-191 659.66,-187 603.34,-187 603.34,-151 686.66,-151 686.66,-187"/>
<text text-anchor="middle" x="645" y="-164.8" font-family="Times,serif" font-size="14.00">AppModule</text>
</g>
<!-- AuthModule&#45;&gt;AppModule -->
<g id="edge1" class="edge">
<title>AuthModule&#45;&gt;AppModule</title>
<path fill="none" stroke="black" d="M1207,-122.01C1207,-144.49 1207,-180 1207,-180 1207,-180 696.78,-180 696.78,-180"/>
<polygon fill="black" stroke="black" points="696.78,-176.5 686.78,-180 696.78,-183.5 696.78,-176.5"/>
</g>
<!-- CompaniesModule -->
<g id="node2" class="node">
<title>CompaniesModule</title>
<polygon fill="#8dd3c7" stroke="black" points="1145.04,-122 1142.04,-126 1121.04,-126 1118.04,-122 1022.96,-122 1022.96,-86 1145.04,-86 1145.04,-122"/>
<text text-anchor="middle" x="1084" y="-99.8" font-family="Times,serif" font-size="14.00">CompaniesModule</text>
</g>
<!-- CompaniesModule&#45;&gt;AppModule -->
<g id="edge2" class="edge">
<title>CompaniesModule&#45;&gt;AppModule</title>
<path fill="none" stroke="black" d="M1084,-122.13C1084,-142.57 1084,-173 1084,-173 1084,-173 696.7,-173 696.7,-173"/>
<polygon fill="black" stroke="black" points="696.7,-169.5 686.7,-173 696.7,-176.5 696.7,-169.5"/>
</g>
<!-- EventsModule -->
<g id="node3" class="node">
<title>EventsModule</title>
<polygon fill="#8dd3c7" stroke="black" points="1004.65,-122 1001.65,-126 980.65,-126 977.65,-122 907.35,-122 907.35,-86 1004.65,-86 1004.65,-122"/>
<text text-anchor="middle" x="956" y="-99.8" font-family="Times,serif" font-size="14.00">EventsModule</text>
</g>
<!-- EventsModule&#45;&gt;AppModule -->
<g id="edge3" class="edge">
<title>EventsModule&#45;&gt;AppModule</title>
<path fill="none" stroke="black" d="M956,-122.27C956,-140.56 956,-166 956,-166 956,-166 696.94,-166 696.94,-166"/>
<polygon fill="black" stroke="black" points="696.94,-162.5 686.94,-166 696.94,-169.5 696.94,-162.5"/>
</g>
<!-- MailModule -->
<g id="node4" class="node">
<title>MailModule</title>
<polygon fill="#8dd3c7" stroke="black" points="888.99,-122 885.99,-126 864.99,-126 861.99,-122 803.01,-122 803.01,-86 888.99,-86 888.99,-122"/>
<text text-anchor="middle" x="846" y="-99.8" font-family="Times,serif" font-size="14.00">MailModule</text>
</g>
<!-- MailModule&#45;&gt;AppModule -->
<g id="edge4" class="edge">
<title>MailModule&#45;&gt;AppModule</title>
<path fill="none" stroke="black" d="M846,-122.01C846,-138.05 846,-159 846,-159 846,-159 697.14,-159 697.14,-159"/>
<polygon fill="black" stroke="black" points="697.14,-155.5 687.14,-159 697.14,-162.5 697.14,-155.5"/>
</g>
<!-- NotificationsModule -->
<g id="node5" class="node">
<title>NotificationsModule</title>
<polygon fill="#8dd3c7" stroke="black" points="785.14,-122 782.14,-126 761.14,-126 758.14,-122 652.86,-122 652.86,-86 785.14,-86 785.14,-122"/>
<text text-anchor="middle" x="719" y="-99.8" font-family="Times,serif" font-size="14.00">NotificationsModule</text>
</g>
<!-- NotificationsModule&#45;&gt;AppModule -->
<g id="edge5" class="edge">
<title>NotificationsModule&#45;&gt;AppModule</title>
<path fill="none" stroke="black" d="M669.75,-122.11C669.75,-122.11 669.75,-140.99 669.75,-140.99"/>
<polygon fill="black" stroke="black" points="666.25,-140.99 669.75,-150.99 673.25,-140.99 666.25,-140.99"/>
</g>
<!-- ParticipantsModule -->
<g id="node6" class="node">
<title>ParticipantsModule</title>
<polygon fill="#8dd3c7" stroke="black" points="634.64,-122 631.64,-126 610.64,-126 607.64,-122 509.36,-122 509.36,-86 634.64,-86 634.64,-122"/>
<text text-anchor="middle" x="572" y="-99.8" font-family="Times,serif" font-size="14.00">ParticipantsModule</text>
</g>
<!-- ParticipantsModule&#45;&gt;AppModule -->
<g id="edge6" class="edge">
<title>ParticipantsModule&#45;&gt;AppModule</title>
<path fill="none" stroke="black" d="M619,-122.11C619,-122.11 619,-140.99 619,-140.99"/>
<polygon fill="black" stroke="black" points="615.5,-140.99 619,-150.99 622.5,-140.99 615.5,-140.99"/>
</g>
<!-- RatingsModule -->
<g id="node7" class="node">
<title>RatingsModule</title>
<polygon fill="#8dd3c7" stroke="black" points="491.33,-122 488.33,-126 467.33,-126 464.33,-122 388.67,-122 388.67,-86 491.33,-86 491.33,-122"/>
<text text-anchor="middle" x="440" y="-99.8" font-family="Times,serif" font-size="14.00">RatingsModule</text>
</g>
<!-- RatingsModule&#45;&gt;AppModule -->
<g id="edge7" class="edge">
<title>RatingsModule&#45;&gt;AppModule</title>
<path fill="none" stroke="black" d="M440,-122.01C440,-138.05 440,-159 440,-159 440,-159 593.02,-159 593.02,-159"/>
<polygon fill="black" stroke="black" points="593.02,-162.5 603.02,-159 593.02,-155.5 593.02,-162.5"/>
</g>
<!-- TagsModule -->
<g id="node8" class="node">
<title>TagsModule</title>
<polygon fill="#8dd3c7" stroke="black" points="370.26,-122 367.26,-126 346.26,-126 343.26,-122 283.74,-122 283.74,-86 370.26,-86 370.26,-122"/>
<text text-anchor="middle" x="327" y="-99.8" font-family="Times,serif" font-size="14.00">TagsModule</text>
</g>
<!-- TagsModule&#45;&gt;AppModule -->
<g id="edge8" class="edge">
<title>TagsModule&#45;&gt;AppModule</title>
<path fill="none" stroke="black" d="M327,-122.27C327,-140.56 327,-166 327,-166 327,-166 593.1,-166 593.1,-166"/>
<polygon fill="black" stroke="black" points="593.1,-169.5 603.1,-166 593.1,-162.5 593.1,-169.5"/>
</g>
<!-- UserActivityModule -->
<g id="node9" class="node">
<title>UserActivityModule</title>
<polygon fill="#8dd3c7" stroke="black" points="265.86,-122 262.86,-126 241.86,-126 238.86,-122 134.14,-122 134.14,-86 265.86,-86 265.86,-122"/>
<text text-anchor="middle" x="200" y="-99.8" font-family="Times,serif" font-size="14.00">UserActivityModule</text>
</g>
<!-- UserActivityModule&#45;&gt;AppModule -->
<g id="edge9" class="edge">
<title>UserActivityModule&#45;&gt;AppModule</title>
<path fill="none" stroke="black" d="M200,-122.13C200,-142.57 200,-173 200,-173 200,-173 593.14,-173 593.14,-173"/>
<polygon fill="black" stroke="black" points="593.14,-176.5 603.14,-173 593.14,-169.5 593.14,-176.5"/>
</g>
<!-- UsersModule -->
<g id="node10" class="node">
<title>UsersModule</title>
<polygon fill="#8dd3c7" stroke="black" points="115.92,-122 112.92,-126 91.92,-126 88.92,-122 24.08,-122 24.08,-86 115.92,-86 115.92,-122"/>
<text text-anchor="middle" x="70" y="-99.8" font-family="Times,serif" font-size="14.00">UsersModule</text>
</g>
<!-- UsersModule&#45;&gt;AppModule -->
<g id="edge10" class="edge">
<title>UsersModule&#45;&gt;AppModule</title>
<path fill="none" stroke="black" d="M70,-122.01C70,-144.49 70,-180 70,-180 70,-180 593.18,-180 593.18,-180"/>
<polygon fill="black" stroke="black" points="593.18,-183.5 603.18,-180 593.18,-176.5 593.18,-183.5"/>
</g>
</g>
</svg>
