<?xml version="1.0" encoding="UTF-8" standalone="no"?>
<!DOCTYPE svg PUBLIC "-//W3C//DTD SVG 1.1//EN"
 "http://www.w3.org/Graphics/SVG/1.1/DTD/svg11.dtd">
<!-- Generated by graphviz version 2.47.0 (20210316.0004)
 -->
<!-- Title: dependencies Pages: 1 -->
<svg width="1908pt" height="588pt"
 viewBox="0.00 0.00 1908.00 588.00" xmlns="http://www.w3.org/2000/svg" xmlns:xlink="http://www.w3.org/1999/xlink">
<g id="graph0" class="graph" transform="scale(1 1) rotate(0) translate(4 584)">
<title>dependencies</title>
<polygon fill="white" stroke="transparent" points="-4,4 -4,-584 1904,-584 1904,4 -4,4"/>
<text text-anchor="start" x="929.01" y="-42.4" font-family="sans-serif" font-weight="bold" font-size="14.00">Legend</text>
<polygon fill="#ffffb3" stroke="transparent" points="716,-10 716,-30 736,-30 736,-10 716,-10"/>
<text text-anchor="start" x="739.63" y="-15.4" font-family="sans-serif" font-size="14.00"> &#160;Declarations</text>
<polygon fill="#8dd3c7" stroke="transparent" points="829,-10 829,-30 849,-30 849,-10 829,-10"/>
<text text-anchor="start" x="852.73" y="-15.4" font-family="sans-serif" font-size="14.00"> &#160;Module</text>
<polygon fill="#80b1d3" stroke="transparent" points="915,-10 915,-30 935,-30 935,-10 915,-10"/>
<text text-anchor="start" x="938.78" y="-15.4" font-family="sans-serif" font-size="14.00"> &#160;Bootstrap</text>
<polygon fill="#fdb462" stroke="transparent" points="1012,-10 1012,-30 1032,-30 1032,-10 1012,-10"/>
<text text-anchor="start" x="1035.67" y="-15.4" font-family="sans-serif" font-size="14.00"> &#160;Providers</text>
<polygon fill="#fb8072" stroke="transparent" points="1108,-10 1108,-30 1128,-30 1128,-10 1108,-10"/>
<text text-anchor="start" x="1131.73" y="-15.4" font-family="sans-serif" font-size="14.00"> &#160;Exports</text>
<g id="clust1" class="cluster">
<title>cluster_AppModule</title>
<polygon fill="none" stroke="black" stroke-dasharray="1,5" points="438,-146 438,-564 980,-564 980,-146 438,-146"/>
</g>
<g id="clust3" class="cluster">
<title>cluster_AppModule_imports</title>
<polygon fill="none" stroke="black" points="498,-154 498,-488 972,-488 972,-154 498,-154"/>
</g>
<g id="clust7" class="cluster">
<title>cluster_AuthModule</title>
<polygon fill="none" stroke="black" stroke-dasharray="1,5" points="1256,-222 1256,-290 1686,-290 1686,-222 1256,-222"/>
</g>
<g id="clust12" class="cluster">
<title>cluster_AuthModule_providers</title>
<polygon fill="none" stroke="black" points="1264,-230 1264,-282 1678,-282 1678,-230 1264,-230"/>
</g>
<g id="clust13" class="cluster">
<title>cluster_CompaniesModule</title>
<polygon fill="none" stroke="black" stroke-dasharray="1,5" points="1694,-222 1694,-290 1892,-290 1892,-222 1694,-222"/>
</g>
<g id="clust18" class="cluster">
<title>cluster_CompaniesModule_providers</title>
<polygon fill="none" stroke="black" points="1702,-230 1702,-282 1884,-282 1884,-230 1702,-230"/>
</g>
<g id="clust19" class="cluster">
<title>cluster_EventsModule</title>
<polygon fill="none" stroke="black" stroke-dasharray="1,5" points="988,-428 988,-496 1276,-496 1276,-428 988,-428"/>
</g>
<g id="clust22" class="cluster">
<title>cluster_EventsModule_exports</title>
<polygon fill="none" stroke="black" points="1152,-436 1152,-488 1268,-488 1268,-436 1152,-436"/>
</g>
<g id="clust24" class="cluster">
<title>cluster_EventsModule_providers</title>
<polygon fill="none" stroke="black" points="996,-436 996,-488 1144,-488 1144,-436 996,-436"/>
</g>
<g id="clust25" class="cluster">
<title>cluster_MailModule</title>
<polygon fill="none" stroke="black" stroke-dasharray="1,5" points="988,-222 988,-290 1248,-290 1248,-222 988,-222"/>
</g>
<g id="clust28" class="cluster">
<title>cluster_MailModule_exports</title>
<polygon fill="none" stroke="black" points="1136,-230 1136,-282 1240,-282 1240,-230 1136,-230"/>
</g>
<g id="clust30" class="cluster">
<title>cluster_MailModule_providers</title>
<polygon fill="none" stroke="black" points="996,-230 996,-282 1128,-282 1128,-230 996,-230"/>
</g>
<g id="clust31" class="cluster">
<title>cluster_NotificationsModule</title>
<polygon fill="none" stroke="black" stroke-dasharray="1,5" points="988,-504 988,-572 1358,-572 1358,-504 988,-504"/>
</g>
<g id="clust34" class="cluster">
<title>cluster_NotificationsModule_exports</title>
<polygon fill="none" stroke="black" points="1200,-512 1200,-564 1350,-564 1350,-512 1200,-512"/>
</g>
<g id="clust36" class="cluster">
<title>cluster_NotificationsModule_providers</title>
<polygon fill="none" stroke="black" points="996,-512 996,-564 1192,-564 1192,-512 996,-512"/>
</g>
<g id="clust37" class="cluster">
<title>cluster_ParticipantsModule</title>
<polygon fill="none" stroke="black" stroke-dasharray="1,5" points="1284,-428 1284,-496 1640,-496 1640,-428 1284,-428"/>
</g>
<g id="clust40" class="cluster">
<title>cluster_ParticipantsModule_exports</title>
<polygon fill="none" stroke="black" points="1488,-436 1488,-488 1632,-488 1632,-436 1488,-436"/>
</g>
<g id="clust42" class="cluster">
<title>cluster_ParticipantsModule_providers</title>
<polygon fill="none" stroke="black" points="1292,-436 1292,-488 1480,-488 1480,-436 1292,-436"/>
</g>
<g id="clust43" class="cluster">
<title>cluster_RatingsModule</title>
<polygon fill="none" stroke="black" stroke-dasharray="1,5" points="260,-352 260,-420 430,-420 430,-352 260,-352"/>
</g>
<g id="clust48" class="cluster">
<title>cluster_RatingsModule_providers</title>
<polygon fill="none" stroke="black" points="268,-360 268,-412 422,-412 422,-360 268,-360"/>
</g>
<g id="clust49" class="cluster">
<title>cluster_TagsModule</title>
<polygon fill="none" stroke="black" stroke-dasharray="1,5" points="474,-70 474,-138 624,-138 624,-70 474,-70"/>
</g>
<g id="clust54" class="cluster">
<title>cluster_TagsModule_providers</title>
<polygon fill="none" stroke="black" points="482,-78 482,-130 616,-130 616,-78 482,-78"/>
</g>
<g id="clust55" class="cluster">
<title>cluster_UserActivityModule</title>
<polygon fill="none" stroke="black" stroke-dasharray="1,5" points="988,-352 988,-420 1358,-420 1358,-352 988,-352"/>
</g>
<g id="clust58" class="cluster">
<title>cluster_UserActivityModule_exports</title>
<polygon fill="none" stroke="black" points="1200,-360 1200,-412 1350,-412 1350,-360 1200,-360"/>
</g>
<g id="clust60" class="cluster">
<title>cluster_UserActivityModule_providers</title>
<polygon fill="none" stroke="black" points="996,-360 996,-412 1192,-412 1192,-360 996,-360"/>
</g>
<g id="clust61" class="cluster">
<title>cluster_UsersModule</title>
<polygon fill="none" stroke="black" stroke-dasharray="1,5" points="8,-146 8,-214 430,-214 430,-146 8,-146"/>
</g>
<g id="clust64" class="cluster">
<title>cluster_UsersModule_exports</title>
<polygon fill="none" stroke="black" points="312,-154 312,-206 422,-206 422,-154 312,-154"/>
</g>
<g id="clust66" class="cluster">
<title>cluster_UsersModule_providers</title>
<polygon fill="none" stroke="black" points="16,-154 16,-206 304,-206 304,-154 16,-154"/>
</g>
<!-- AuthModule -->
<g id="node1" class="node">
<title>AuthModule</title>
<polygon fill="#8dd3c7" stroke="black" points="653.55,-339 650.55,-343 629.55,-343 626.55,-339 566.45,-339 566.45,-303 653.55,-303 653.55,-339"/>
<text text-anchor="middle" x="610" y="-316.8" font-family="Times,serif" font-size="14.00">AuthModule</text>
</g>
<!-- AppModule -->
<g id="node11" class="node">
<title>AppModule</title>
<polygon fill="#8dd3c7" stroke="black" points="650.66,-556 647.66,-560 626.66,-560 623.66,-556 567.34,-556 567.34,-520 650.66,-520 650.66,-556"/>
<text text-anchor="middle" x="609" y="-533.8" font-family="Times,serif" font-size="14.00">AppModule</text>
</g>
<!-- AuthModule&#45;&gt;AppModule -->
<g id="edge1" class="edge">
<title>AuthModule&#45;&gt;AppModule</title>
<path fill="none" stroke="black" d="M588.09,-339.13C588.09,-339.13 588.09,-509.77 588.09,-509.77"/>
<polygon fill="black" stroke="black" points="584.59,-509.77 588.09,-519.77 591.59,-509.77 584.59,-509.77"/>
</g>
<!-- CompaniesModule -->
<g id="node2" class="node">
<title>CompaniesModule</title>
<polygon fill="#8dd3c7" stroke="black" points="794.04,-339 791.04,-343 770.04,-343 767.04,-339 671.96,-339 671.96,-303 794.04,-303 794.04,-339"/>
<text text-anchor="middle" x="733" y="-316.8" font-family="Times,serif" font-size="14.00">CompaniesModule</text>
</g>
<!-- CompaniesModule&#45;&gt;AppModule -->
<g id="edge2" class="edge">
<title>CompaniesModule&#45;&gt;AppModule</title>
<path fill="none" stroke="black" d="M787.22,-339.19C787.22,-389.36 787.22,-526 787.22,-526 787.22,-526 660.78,-526 660.78,-526"/>
<polygon fill="black" stroke="black" points="660.78,-522.5 650.78,-526 660.78,-529.5 660.78,-522.5"/>
</g>
<!-- EventsModule -->
<g id="node3" class="node">
<title>EventsModule</title>
<polygon fill="#8dd3c7" stroke="black" points="777.65,-404 774.65,-408 753.65,-408 750.65,-404 680.35,-404 680.35,-368 777.65,-368 777.65,-404"/>
<text text-anchor="middle" x="729" y="-381.8" font-family="Times,serif" font-size="14.00">EventsModule</text>
</g>
<!-- RatingsModule -->
<g id="node7" class="node">
<title>RatingsModule</title>
<polygon fill="#8dd3c7" stroke="black" points="780.33,-480 777.33,-484 756.33,-484 753.33,-480 677.67,-480 677.67,-444 780.33,-444 780.33,-480"/>
<text text-anchor="middle" x="729" y="-457.8" font-family="Times,serif" font-size="14.00">RatingsModule</text>
</g>
<!-- EventsModule&#45;&gt;RatingsModule -->
<g id="edge31" class="edge">
<title>EventsModule&#45;&gt;RatingsModule</title>
<path fill="none" stroke="black" d="M704.59,-404.01C704.59,-404.01 704.59,-433.85 704.59,-433.85"/>
<polygon fill="black" stroke="black" points="701.09,-433.85 704.59,-443.85 708.09,-433.85 701.09,-433.85"/>
</g>
<!-- EventsModule&#45;&gt;AppModule -->
<g id="edge3" class="edge">
<title>EventsModule&#45;&gt;AppModule</title>
<path fill="none" stroke="black" d="M680.19,-392C646.97,-392 609,-392 609,-392 609,-392 609,-509.8 609,-509.8"/>
<polygon fill="black" stroke="black" points="605.5,-509.8 609,-519.8 612.5,-509.8 605.5,-509.8"/>
</g>
<!-- EventsService  -->
<g id="node16" class="node">
<title>EventsService </title>
<polygon fill="#fb8072" stroke="black" points="1259.58,-480 1160.42,-480 1160.42,-444 1259.58,-444 1259.58,-480"/>
<text text-anchor="middle" x="1210" y="-457.8" font-family="Times,serif" font-size="14.00">EventsService </text>
</g>
<!-- EventsModule&#45;&gt;EventsService  -->
<g id="edge19" class="edge">
<title>EventsModule&#45;&gt;EventsService </title>
<path fill="none" stroke="black" stroke-dasharray="5,2" d="M729,-404.06C729,-415.44 729,-428 729,-428 729,-428 1172.04,-428 1172.04,-428 1172.04,-428 1172.04,-433.81 1172.04,-433.81"/>
<polygon fill="black" stroke="black" points="1168.54,-433.81 1172.04,-443.81 1175.54,-433.81 1168.54,-433.81"/>
</g>
<!-- MailModule -->
<g id="node4" class="node">
<title>MailModule</title>
<polygon fill="#8dd3c7" stroke="black" points="963.99,-198 960.99,-202 939.99,-202 936.99,-198 878.01,-198 878.01,-162 963.99,-162 963.99,-198"/>
<text text-anchor="middle" x="921" y="-175.8" font-family="Times,serif" font-size="14.00">MailModule</text>
</g>
<!-- NotificationsModule -->
<g id="node5" class="node">
<title>NotificationsModule</title>
<polygon fill="#8dd3c7" stroke="black" points="964.14,-480 961.14,-484 940.14,-484 937.14,-480 831.86,-480 831.86,-444 964.14,-444 964.14,-480"/>
<text text-anchor="middle" x="898" y="-457.8" font-family="Times,serif" font-size="14.00">NotificationsModule</text>
</g>
<!-- MailModule&#45;&gt;NotificationsModule -->
<g id="edge23" class="edge">
<title>MailModule&#45;&gt;NotificationsModule</title>
<path fill="none" stroke="black" d="M950.62,-198.07C950.62,-198.07 950.62,-433.72 950.62,-433.72"/>
<polygon fill="black" stroke="black" points="947.12,-433.72 950.62,-443.72 954.12,-433.72 947.12,-433.72"/>
</g>
<!-- UsersModule -->
<g id="node10" class="node">
<title>UsersModule</title>
<polygon fill="#8dd3c7" stroke="black" points="597.92,-274 594.92,-278 573.92,-278 570.92,-274 506.08,-274 506.08,-238 597.92,-238 597.92,-274"/>
<text text-anchor="middle" x="552" y="-251.8" font-family="Times,serif" font-size="14.00">UsersModule</text>
</g>
<!-- MailModule&#45;&gt;UsersModule -->
<g id="edge40" class="edge">
<title>MailModule&#45;&gt;UsersModule</title>
<path fill="none" stroke="black" d="M910.97,-198.17C910.97,-217.09 910.97,-244 910.97,-244 910.97,-244 607.83,-244 607.83,-244"/>
<polygon fill="black" stroke="black" points="607.83,-240.5 597.83,-244 607.83,-247.5 607.83,-240.5"/>
</g>
<!-- MailModule&#45;&gt;AppModule -->
<g id="edge4" class="edge">
<title>MailModule&#45;&gt;AppModule</title>
<path fill="none" stroke="black" d="M877.71,-180C842.02,-180 797.24,-180 797.24,-180 797.24,-180 797.24,-531 797.24,-531 797.24,-531 660.78,-531 660.78,-531"/>
<polygon fill="black" stroke="black" points="660.78,-527.5 650.78,-531 660.78,-534.5 660.78,-527.5"/>
</g>
<!-- MailService  -->
<g id="node18" class="node">
<title>MailService </title>
<polygon fill="#fb8072" stroke="black" points="1231.92,-274 1144.08,-274 1144.08,-238 1231.92,-238 1231.92,-274"/>
<text text-anchor="middle" x="1188" y="-251.8" font-family="Times,serif" font-size="14.00">MailService </text>
</g>
<!-- MailModule&#45;&gt;MailService  -->
<g id="edge21" class="edge">
<title>MailModule&#45;&gt;MailService </title>
<path fill="none" stroke="black" stroke-dasharray="5,2" d="M964.19,-180C1039.76,-180 1188,-180 1188,-180 1188,-180 1188,-227.99 1188,-227.99"/>
<polygon fill="black" stroke="black" points="1184.5,-227.99 1188,-237.99 1191.5,-227.99 1184.5,-227.99"/>
</g>
<!-- NotificationsModule&#45;&gt;AppModule -->
<g id="edge5" class="edge">
<title>NotificationsModule&#45;&gt;AppModule</title>
<path fill="none" stroke="black" d="M898,-480.23C898,-504.93 898,-546 898,-546 898,-546 660.71,-546 660.71,-546"/>
<polygon fill="black" stroke="black" points="660.71,-542.5 650.71,-546 660.71,-549.5 660.71,-542.5"/>
</g>
<!-- NotificationsService  -->
<g id="node20" class="node">
<title>NotificationsService </title>
<polygon fill="#fb8072" stroke="black" points="1342.07,-556 1207.93,-556 1207.93,-520 1342.07,-520 1342.07,-556"/>
<text text-anchor="middle" x="1275" y="-533.8" font-family="Times,serif" font-size="14.00">NotificationsService </text>
</g>
<!-- NotificationsModule&#45;&gt;NotificationsService  -->
<g id="edge25" class="edge">
<title>NotificationsModule&#45;&gt;NotificationsService </title>
<path fill="none" stroke="black" stroke-dasharray="5,2" d="M864.84,-480.11C864.84,-489.9 864.84,-500 864.84,-500 864.84,-500 1233.75,-500 1233.75,-500 1233.75,-500 1233.75,-509.89 1233.75,-509.89"/>
<polygon fill="black" stroke="black" points="1230.25,-509.89 1233.75,-519.89 1237.25,-509.89 1230.25,-509.89"/>
</g>
<!-- ParticipantsModule -->
<g id="node6" class="node">
<title>ParticipantsModule</title>
<polygon fill="#8dd3c7" stroke="black" points="941.64,-404 938.64,-408 917.64,-408 914.64,-404 816.36,-404 816.36,-368 941.64,-368 941.64,-404"/>
<text text-anchor="middle" x="879" y="-381.8" font-family="Times,serif" font-size="14.00">ParticipantsModule</text>
</g>
<!-- ParticipantsModule&#45;&gt;NotificationsModule -->
<g id="edge24" class="edge">
<title>ParticipantsModule&#45;&gt;NotificationsModule</title>
<path fill="none" stroke="black" d="M859.21,-404.01C859.21,-404.01 859.21,-433.85 859.21,-433.85"/>
<polygon fill="black" stroke="black" points="855.71,-433.85 859.21,-443.85 862.71,-433.85 855.71,-433.85"/>
</g>
<!-- ParticipantsModule&#45;&gt;RatingsModule -->
<g id="edge32" class="edge">
<title>ParticipantsModule&#45;&gt;RatingsModule</title>
<path fill="none" stroke="black" d="M821.34,-404.2C821.34,-428.36 821.34,-468 821.34,-468 821.34,-468 790.3,-468 790.3,-468"/>
<polygon fill="black" stroke="black" points="790.3,-464.5 780.3,-468 790.3,-471.5 790.3,-464.5"/>
</g>
<!-- ParticipantsModule&#45;&gt;AppModule -->
<g id="edge6" class="edge">
<title>ParticipantsModule&#45;&gt;AppModule</title>
<path fill="none" stroke="black" d="M826.51,-404.08C826.51,-444.97 826.51,-541 826.51,-541 826.51,-541 660.68,-541 660.68,-541"/>
<polygon fill="black" stroke="black" points="660.68,-537.5 650.68,-541 660.68,-544.5 660.68,-537.5"/>
</g>
<!-- ParticipantsService  -->
<g id="node22" class="node">
<title>ParticipantsService </title>
<polygon fill="#fb8072" stroke="black" points="1623.57,-480 1496.43,-480 1496.43,-444 1623.57,-444 1623.57,-480"/>
<text text-anchor="middle" x="1560" y="-457.8" font-family="Times,serif" font-size="14.00">ParticipantsService </text>
</g>
<!-- ParticipantsModule&#45;&gt;ParticipantsService  -->
<g id="edge29" class="edge">
<title>ParticipantsModule&#45;&gt;ParticipantsService </title>
<path fill="none" stroke="black" stroke-dasharray="5,2" d="M886.75,-404.06C886.75,-408.49 886.75,-412 886.75,-412 886.75,-412 1514.92,-412 1514.92,-412 1514.92,-412 1514.92,-433.95 1514.92,-433.95"/>
<polygon fill="black" stroke="black" points="1511.42,-433.95 1514.92,-443.95 1518.42,-433.95 1511.42,-433.95"/>
</g>
<!-- RatingsModule&#45;&gt;AppModule -->
<g id="edge7" class="edge">
<title>RatingsModule&#45;&gt;AppModule</title>
<path fill="none" stroke="black" d="M677.72,-471C653.54,-471 629.91,-471 629.91,-471 629.91,-471 629.91,-509.69 629.91,-509.69"/>
<polygon fill="black" stroke="black" points="626.41,-509.69 629.91,-519.69 633.41,-509.69 626.41,-509.69"/>
</g>
<!-- TagsModule -->
<g id="node8" class="node">
<title>TagsModule</title>
<polygon fill="#8dd3c7" stroke="black" points="592.26,-198 589.26,-202 568.26,-202 565.26,-198 505.74,-198 505.74,-162 592.26,-162 592.26,-198"/>
<text text-anchor="middle" x="549" y="-175.8" font-family="Times,serif" font-size="14.00">TagsModule</text>
</g>
<!-- TagsModule&#45;&gt;AppModule -->
<g id="edge8" class="edge">
<title>TagsModule&#45;&gt;AppModule</title>
<path fill="none" stroke="black" d="M505.46,-180C500.92,-180 497.93,-180 497.93,-180 497.93,-180 497.93,-544 497.93,-544 497.93,-544 557.33,-544 557.33,-544"/>
<polygon fill="black" stroke="black" points="557.33,-547.5 567.33,-544 557.33,-540.5 557.33,-547.5"/>
</g>
<!-- UserActivityModule -->
<g id="node9" class="node">
<title>UserActivityModule</title>
<polygon fill="#8dd3c7" stroke="black" points="943.86,-339 940.86,-343 919.86,-343 916.86,-339 812.14,-339 812.14,-303 943.86,-303 943.86,-339"/>
<text text-anchor="middle" x="878" y="-316.8" font-family="Times,serif" font-size="14.00">UserActivityModule</text>
</g>
<!-- UserActivityModule&#45;&gt;EventsModule -->
<g id="edge17" class="edge">
<title>UserActivityModule&#45;&gt;EventsModule</title>
<path fill="none" stroke="black" d="M812.05,-312C806.62,-312 803.17,-312 803.17,-312 803.17,-312 803.17,-392 803.17,-392 803.17,-392 788.06,-392 788.06,-392"/>
<polygon fill="black" stroke="black" points="788.06,-388.5 778.06,-392 788.06,-395.5 788.06,-388.5"/>
</g>
<!-- UserActivityModule&#45;&gt;ParticipantsModule -->
<g id="edge27" class="edge">
<title>UserActivityModule&#45;&gt;ParticipantsModule</title>
<path fill="none" stroke="black" d="M879,-339.11C879,-339.11 879,-357.99 879,-357.99"/>
<polygon fill="black" stroke="black" points="875.5,-357.99 879,-367.99 882.5,-357.99 875.5,-357.99"/>
</g>
<!-- UserActivityModule&#45;&gt;RatingsModule -->
<g id="edge33" class="edge">
<title>UserActivityModule&#45;&gt;RatingsModule</title>
<path fill="none" stroke="black" d="M811.78,-321C808.26,-321 806.14,-321 806.14,-321 806.14,-321 806.14,-456 806.14,-456 806.14,-456 790.45,-456 790.45,-456"/>
<polygon fill="black" stroke="black" points="790.45,-452.5 780.45,-456 790.45,-459.5 790.45,-452.5"/>
</g>
<!-- UserActivityModule&#45;&gt;AppModule -->
<g id="edge9" class="edge">
<title>UserActivityModule&#45;&gt;AppModule</title>
<path fill="none" stroke="black" d="M812.06,-330C810.18,-330 809.1,-330 809.1,-330 809.1,-330 809.1,-536 809.1,-536 809.1,-536 660.95,-536 660.95,-536"/>
<polygon fill="black" stroke="black" points="660.95,-532.5 650.95,-536 660.95,-539.5 660.95,-532.5"/>
</g>
<!-- UserActivityService  -->
<g id="node26" class="node">
<title>UserActivityService </title>
<polygon fill="#fb8072" stroke="black" points="1341.79,-404 1208.21,-404 1208.21,-368 1341.79,-368 1341.79,-404"/>
<text text-anchor="middle" x="1275" y="-381.8" font-family="Times,serif" font-size="14.00">UserActivityService </text>
</g>
<!-- UserActivityModule&#45;&gt;UserActivityService  -->
<g id="edge38" class="edge">
<title>UserActivityModule&#45;&gt;UserActivityService </title>
<path fill="none" stroke="black" stroke-dasharray="5,2" d="M943.95,-315C1043.34,-315 1220.03,-315 1220.03,-315 1220.03,-315 1220.03,-357.72 1220.03,-357.72"/>
<polygon fill="black" stroke="black" points="1216.53,-357.72 1220.03,-367.72 1223.53,-357.72 1216.53,-357.72"/>
</g>
<!-- UsersModule&#45;&gt;AuthModule -->
<g id="edge11" class="edge">
<title>UsersModule&#45;&gt;AuthModule</title>
<path fill="none" stroke="black" d="M581.97,-274.11C581.97,-274.11 581.97,-292.99 581.97,-292.99"/>
<polygon fill="black" stroke="black" points="578.47,-292.99 581.97,-302.99 585.47,-292.99 578.47,-292.99"/>
</g>
<!-- UsersModule&#45;&gt;CompaniesModule -->
<g id="edge15" class="edge">
<title>UsersModule&#45;&gt;CompaniesModule</title>
<path fill="none" stroke="black" d="M598.01,-262C645.46,-262 712.58,-262 712.58,-262 712.58,-262 712.58,-292.98 712.58,-292.98"/>
<polygon fill="black" stroke="black" points="709.08,-292.98 712.58,-302.98 716.08,-292.98 709.08,-292.98"/>
</g>
<!-- UsersModule&#45;&gt;EventsModule -->
<g id="edge18" class="edge">
<title>UsersModule&#45;&gt;EventsModule</title>
<path fill="none" stroke="black" d="M551.24,-274.03C551.24,-308.42 551.24,-380 551.24,-380 551.24,-380 669.96,-380 669.96,-380"/>
<polygon fill="black" stroke="black" points="669.96,-383.5 679.96,-380 669.96,-376.5 669.96,-383.5"/>
</g>
<!-- UsersModule&#45;&gt;ParticipantsModule -->
<g id="edge28" class="edge">
<title>UsersModule&#45;&gt;ParticipantsModule</title>
<path fill="none" stroke="black" d="M597.81,-256C669.53,-256 800.2,-256 800.2,-256 800.2,-256 800.2,-380 800.2,-380 800.2,-380 806.15,-380 806.15,-380"/>
<polygon fill="black" stroke="black" points="806.15,-383.5 816.15,-380 806.15,-376.5 806.15,-383.5"/>
</g>
<!-- UsersModule&#45;&gt;RatingsModule -->
<g id="edge34" class="edge">
<title>UsersModule&#45;&gt;RatingsModule</title>
<path fill="none" stroke="black" d="M536.26,-274.18C536.26,-322.95 536.26,-453 536.26,-453 536.26,-453 667.6,-453 667.6,-453"/>
<polygon fill="black" stroke="black" points="667.6,-456.5 677.6,-453 667.6,-449.5 667.6,-456.5"/>
</g>
<!-- UsersModule&#45;&gt;UserActivityModule -->
<g id="edge37" class="edge">
<title>UsersModule&#45;&gt;UserActivityModule</title>
<path fill="none" stroke="black" d="M597.79,-250C680.2,-250 845.04,-250 845.04,-250 845.04,-250 845.04,-292.72 845.04,-292.72"/>
<polygon fill="black" stroke="black" points="841.54,-292.72 845.04,-302.72 848.54,-292.72 841.54,-292.72"/>
</g>
<!-- UsersModule&#45;&gt;AppModule -->
<g id="edge10" class="edge">
<title>UsersModule&#45;&gt;AppModule</title>
<path fill="none" stroke="black" d="M521.27,-274.11C521.27,-335.51 521.27,-532 521.27,-532 521.27,-532 557.19,-532 557.19,-532"/>
<polygon fill="black" stroke="black" points="557.19,-535.5 567.19,-532 557.19,-528.5 557.19,-535.5"/>
</g>
<!-- UsersService  -->
<g id="node28" class="node">
<title>UsersService </title>
<polygon fill="#fb8072" stroke="black" points="413.85,-198 320.15,-198 320.15,-162 413.85,-162 413.85,-198"/>
<text text-anchor="middle" x="367" y="-175.8" font-family="Times,serif" font-size="14.00">UsersService </text>
</g>
<!-- UsersModule&#45;&gt;UsersService  -->
<g id="edge41" class="edge">
<title>UsersModule&#45;&gt;UsersService </title>
<path fill="none" stroke="black" stroke-dasharray="5,2" d="M506.27,-247C451.49,-247 367,-247 367,-247 367,-247 367,-208.31 367,-208.31"/>
<polygon fill="black" stroke="black" points="370.5,-208.31 367,-198.31 363.5,-208.31 370.5,-208.31"/>
</g>
<!-- AuthService -->
<g id="node12" class="node">
<title>AuthService</title>
<ellipse fill="#fdb462" stroke="black" cx="1611" cy="-256" rx="59.11" ry="18"/>
<text text-anchor="middle" x="1611" y="-251.8" font-family="Times,serif" font-size="14.00">AuthService</text>
</g>
<!-- AuthService&#45;&gt;AuthModule -->
<g id="edge12" class="edge">
<title>AuthService&#45;&gt;AuthModule</title>
<path fill="none" stroke="black" d="M1587.74,-272.74C1587.74,-282.14 1587.74,-292 1587.74,-292 1587.74,-292 642.27,-292 642.27,-292 642.27,-292 642.27,-293.08 642.27,-293.08"/>
<polygon fill="black" stroke="black" points="638.77,-292.8 642.27,-302.8 645.77,-292.8 638.77,-292.8"/>
</g>
<!-- JwtStrategy -->
<g id="node13" class="node">
<title>JwtStrategy</title>
<ellipse fill="#fdb462" stroke="black" cx="1477" cy="-256" rx="56.76" ry="18"/>
<text text-anchor="middle" x="1477" y="-251.8" font-family="Times,serif" font-size="14.00">JwtStrategy</text>
</g>
<!-- JwtStrategy&#45;&gt;AuthModule -->
<g id="edge13" class="edge">
<title>JwtStrategy&#45;&gt;AuthModule</title>
<path fill="none" stroke="black" d="M1445.98,-271.35C1445.98,-278.73 1445.98,-286 1445.98,-286 1445.98,-286 630.77,-286 630.77,-286 630.77,-286 630.77,-292.68 630.77,-292.68"/>
<polygon fill="black" stroke="black" points="627.27,-292.68 630.77,-302.68 634.27,-292.68 627.27,-292.68"/>
</g>
<!-- LocalStrategy -->
<g id="node14" class="node">
<title>LocalStrategy</title>
<ellipse fill="#fdb462" stroke="black" cx="1337" cy="-256" rx="65.41" ry="18"/>
<text text-anchor="middle" x="1337" y="-251.8" font-family="Times,serif" font-size="14.00">LocalStrategy</text>
</g>
<!-- LocalStrategy&#45;&gt;AuthModule -->
<g id="edge14" class="edge">
<title>LocalStrategy&#45;&gt;AuthModule</title>
<path fill="none" stroke="black" d="M1306.85,-272.14C1306.85,-276.48 1306.85,-280 1306.85,-280 1306.85,-280 619.26,-280 619.26,-280 619.26,-280 619.26,-292.9 619.26,-292.9"/>
<polygon fill="black" stroke="black" points="615.77,-292.9 619.26,-302.9 622.77,-292.9 615.77,-292.9"/>
</g>
<!-- CompaniesService -->
<g id="node15" class="node">
<title>CompaniesService</title>
<ellipse fill="#fdb462" stroke="black" cx="1793" cy="-256" rx="83.38" ry="18"/>
<text text-anchor="middle" x="1793" y="-251.8" font-family="Times,serif" font-size="14.00">CompaniesService</text>
</g>
<!-- CompaniesService&#45;&gt;CompaniesModule -->
<g id="edge16" class="edge">
<title>CompaniesService&#45;&gt;CompaniesModule</title>
<path fill="none" stroke="black" d="M1793,-274.06C1793,-285.44 1793,-298 1793,-298 1793,-298 753.42,-298 753.42,-298 753.42,-298 753.42,-298.49 753.42,-298.49"/>
<polygon fill="black" stroke="black" points="749.92,-292.88 753.42,-302.88 756.92,-292.88 749.92,-292.88"/>
</g>
<!-- EventsService -->
<g id="node17" class="node">
<title>EventsService</title>
<ellipse fill="#fdb462" stroke="black" cx="1070" cy="-462" rx="66.05" ry="18"/>
<text text-anchor="middle" x="1070" y="-457.8" font-family="Times,serif" font-size="14.00">EventsService</text>
</g>
<!-- EventsService&#45;&gt;EventsModule -->
<g id="edge20" class="edge">
<title>EventsService&#45;&gt;EventsModule</title>
<path fill="none" stroke="black" d="M1070.2,-443.94C1070.2,-439.51 1070.2,-436 1070.2,-436 1070.2,-436 753.41,-436 753.41,-436 753.41,-436 753.41,-414.05 753.41,-414.05"/>
<polygon fill="black" stroke="black" points="756.91,-414.05 753.41,-404.05 749.91,-414.05 756.91,-414.05"/>
</g>
<!-- MailService -->
<g id="node19" class="node">
<title>MailService</title>
<ellipse fill="#fdb462" stroke="black" cx="1062" cy="-256" rx="58.46" ry="18"/>
<text text-anchor="middle" x="1062" y="-251.8" font-family="Times,serif" font-size="14.00">MailService</text>
</g>
<!-- MailService&#45;&gt;MailModule -->
<g id="edge22" class="edge">
<title>MailService&#45;&gt;MailModule</title>
<path fill="none" stroke="black" d="M1018.51,-268C989.75,-268 957.31,-268 957.31,-268 957.31,-268 957.31,-208.23 957.31,-208.23"/>
<polygon fill="black" stroke="black" points="960.81,-208.23 957.31,-198.23 953.81,-208.23 960.81,-208.23"/>
</g>
<!-- NotificationsService -->
<g id="node21" class="node">
<title>NotificationsService</title>
<ellipse fill="#fdb462" stroke="black" cx="1094" cy="-538" rx="90.32" ry="18"/>
<text text-anchor="middle" x="1094" y="-533.8" font-family="Times,serif" font-size="14.00">NotificationsService</text>
</g>
<!-- NotificationsService&#45;&gt;NotificationsModule -->
<g id="edge26" class="edge">
<title>NotificationsService&#45;&gt;NotificationsModule</title>
<path fill="none" stroke="black" d="M1031.04,-551C985.22,-551 931.16,-551 931.16,-551 931.16,-551 931.16,-490.01 931.16,-490.01"/>
<polygon fill="black" stroke="black" points="934.66,-490.01 931.16,-480.01 927.66,-490.01 934.66,-490.01"/>
</g>
<!-- ParticipantsService -->
<g id="node23" class="node">
<title>ParticipantsService</title>
<ellipse fill="#fdb462" stroke="black" cx="1386" cy="-462" rx="85.66" ry="18"/>
<text text-anchor="middle" x="1386" y="-457.8" font-family="Times,serif" font-size="14.00">ParticipantsService</text>
</g>
<!-- ParticipantsService&#45;&gt;ParticipantsModule -->
<g id="edge30" class="edge">
<title>ParticipantsService&#45;&gt;ParticipantsModule</title>
<path fill="none" stroke="black" d="M1321.16,-450.08C1321.16,-437.66 1321.16,-420 1321.16,-420 1321.16,-420 914.29,-420 914.29,-420 914.29,-420 914.29,-414.19 914.29,-414.19"/>
<polygon fill="black" stroke="black" points="917.79,-414.19 914.29,-404.19 910.79,-414.19 917.79,-414.19"/>
</g>
<!-- RatingsService -->
<g id="node24" class="node">
<title>RatingsService</title>
<ellipse fill="#fdb462" stroke="black" cx="345" cy="-386" rx="69.5" ry="18"/>
<text text-anchor="middle" x="345" y="-381.8" font-family="Times,serif" font-size="14.00">RatingsService</text>
</g>
<!-- RatingsService&#45;&gt;RatingsModule -->
<g id="edge35" class="edge">
<title>RatingsService&#45;&gt;RatingsModule</title>
<path fill="none" stroke="black" d="M345,-404.01C345,-426.49 345,-462 345,-462 345,-462 667.61,-462 667.61,-462"/>
<polygon fill="black" stroke="black" points="667.61,-465.5 677.61,-462 667.61,-458.5 667.61,-465.5"/>
</g>
<!-- TagsService -->
<g id="node25" class="node">
<title>TagsService</title>
<ellipse fill="#fdb462" stroke="black" cx="549" cy="-104" rx="58.53" ry="18"/>
<text text-anchor="middle" x="549" y="-99.8" font-family="Times,serif" font-size="14.00">TagsService</text>
</g>
<!-- TagsService&#45;&gt;TagsModule -->
<g id="edge36" class="edge">
<title>TagsService&#45;&gt;TagsModule</title>
<path fill="none" stroke="black" d="M549,-122.01C549,-122.01 549,-151.85 549,-151.85"/>
<polygon fill="black" stroke="black" points="545.5,-151.85 549,-161.85 552.5,-151.85 545.5,-151.85"/>
</g>
<!-- UserActivityService -->
<g id="node27" class="node">
<title>UserActivityService</title>
<ellipse fill="#fdb462" stroke="black" cx="1094" cy="-386" rx="89.74" ry="18"/>
<text text-anchor="middle" x="1094" y="-381.8" font-family="Times,serif" font-size="14.00">UserActivityService</text>
</g>
<!-- UserActivityService&#45;&gt;UserActivityModule -->
<g id="edge39" class="edge">
<title>UserActivityService&#45;&gt;UserActivityModule</title>
<path fill="none" stroke="black" d="M1062.18,-368.93C1062.18,-351.51 1062.18,-327 1062.18,-327 1062.18,-327 953.97,-327 953.97,-327"/>
<polygon fill="black" stroke="black" points="953.97,-323.5 943.97,-327 953.97,-330.5 953.97,-323.5"/>
</g>
<!-- TokenService -->
<g id="node29" class="node">
<title>TokenService</title>
<ellipse fill="#fdb462" stroke="black" cx="89" cy="-180" rx="64.83" ry="18"/>
<text text-anchor="middle" x="89" y="-175.8" font-family="Times,serif" font-size="14.00">TokenService</text>
</g>
<!-- TokenService&#45;&gt;UsersModule -->
<g id="edge42" class="edge">
<title>TokenService&#45;&gt;UsersModule</title>
<path fill="none" stroke="black" d="M89,-198.03C89,-222.98 89,-265 89,-265 89,-265 495.91,-265 495.91,-265"/>
<polygon fill="black" stroke="black" points="495.91,-268.5 505.91,-265 495.91,-261.5 495.91,-268.5"/>
</g>
<!-- UsersService -->
<g id="node30" class="node">
<title>UsersService</title>
<ellipse fill="#fdb462" stroke="black" cx="234" cy="-180" rx="61.95" ry="18"/>
<text text-anchor="middle" x="234" y="-175.8" font-family="Times,serif" font-size="14.00">UsersService</text>
</g>
<!-- UsersService&#45;&gt;UsersModule -->
<g id="edge43" class="edge">
<title>UsersService&#45;&gt;UsersModule</title>
<path fill="none" stroke="black" d="M285.74,-189.94C285.74,-210.54 285.74,-256 285.74,-256 285.74,-256 496.23,-256 496.23,-256"/>
<polygon fill="black" stroke="black" points="496.23,-259.5 506.23,-256 496.23,-252.5 496.23,-259.5"/>
</g>
</g>
</svg>
